<?xml version="1.0" encoding="iso-8859-1"?>
<!-- Generator: Adobe Illustrator 19.0.0, SVG Export Plug-In . SVG Version: 6.00 Build 0)  -->
<svg version="1.1" id="Capa_1" xmlns="http://www.w3.org/2000/svg" xmlns:xlink="http://www.w3.org/1999/xlink" x="0px" y="0px"
	 viewBox="0 0 512 512" style="enable-background:new 0 0 512 512;" xml:space="preserve">
<path style="fill:#28384C;" d="M485.535,441.379H26.465C11.847,441.379,0,429.533,0,414.914V97.086
	c0-14.618,11.847-26.465,26.465-26.465h459.079c14.61,0,26.456,11.847,26.456,26.465v317.837
	C512,429.533,500.153,441.379,485.535,441.379z"/>
<path style="fill:#546B7F;" d="M476.69,353.103H35.31V132.396c0-14.618,11.847-26.465,26.465-26.465h388.458
	c14.61,0,26.456,11.847,26.456,26.465V353.103z"/>
<path style="fill:#3B4E63;" d="M344.276,308.966H167.724c-43.882,0-79.448-35.566-79.448-79.448l0,0
	c0-43.882,35.566-79.448,79.448-79.448h176.552c43.882,0,79.448,35.566,79.448,79.448l0,0
	C423.724,273.399,388.158,308.966,344.276,308.966z"/>
<g>
	<path style="fill:#AFB6BB;" d="M141.241,238.345h-17.655c-4.873,0-8.828-3.955-8.828-8.828s3.955-8.828,8.828-8.828h17.655
		c4.873,0,8.828,3.955,8.828,8.828S146.114,238.345,141.241,238.345z"/>
	<path style="fill:#AFB6BB;" d="M211.862,238.345h-17.655c-4.873,0-8.828-3.955-8.828-8.828s3.955-8.828,8.828-8.828h17.655
		c4.873,0,8.828,3.955,8.828,8.828S216.735,238.345,211.862,238.345z"/>
	<path style="fill:#AFB6BB;" d="M167.724,282.483c-4.873,0-8.828-3.955-8.828-8.828V256c0-4.873,3.955-8.828,8.828-8.828
		s8.828,3.955,8.828,8.828v17.655C176.552,278.528,172.597,282.483,167.724,282.483z"/>
	<path style="fill:#AFB6BB;" d="M167.724,211.862c-4.873,0-8.828-3.955-8.828-8.828v-17.655c0-4.873,3.955-8.828,8.828-8.828
		s8.828,3.955,8.828,8.828v17.655C176.552,207.907,172.597,211.862,167.724,211.862z"/>
	<path style="fill:#AFB6BB;" d="M317.793,238.345h-17.655c-4.873,0-8.828-3.955-8.828-8.828s3.955-8.828,8.828-8.828h17.655
		c4.873,0,8.828,3.955,8.828,8.828S322.666,238.345,317.793,238.345z"/>
	<path style="fill:#AFB6BB;" d="M388.414,238.345h-17.655c-4.873,0-8.828-3.955-8.828-8.828s3.955-8.828,8.828-8.828h17.655
		c4.873,0,8.828,3.955,8.828,8.828S393.287,238.345,388.414,238.345z"/>
	<path style="fill:#AFB6BB;" d="M344.276,282.483c-4.873,0-8.828-3.955-8.828-8.828V256c0-4.873,3.955-8.828,8.828-8.828
		c4.873,0,8.828,3.955,8.828,8.828v17.655C353.103,278.528,349.149,282.483,344.276,282.483z"/>
	<path style="fill:#AFB6BB;" d="M344.276,211.862c-4.873,0-8.828-3.955-8.828-8.828v-17.655c0-4.873,3.955-8.828,8.828-8.828
		c4.873,0,8.828,3.955,8.828,8.828v17.655C353.103,207.907,349.149,211.862,344.276,211.862z"/>
</g>
<polygon style="fill:#3B4E63;" points="414.897,441.379 97.103,441.379 132.414,353.103 379.586,353.103 "/>
<g>
	<path style="fill:#546B7F;" d="M194.207,406.069h-35.31c-4.873,0-8.828-3.955-8.828-8.828c0-4.873,3.955-8.828,8.828-8.828h35.31
		c4.873,0,8.828,3.955,8.828,8.828C203.034,402.114,199.08,406.069,194.207,406.069z"/>
	<path style="fill:#546B7F;" d="M353.103,406.069h-35.31c-4.873,0-8.828-3.955-8.828-8.828c0-4.873,3.955-8.828,8.828-8.828h35.31
		c4.873,0,8.828,3.955,8.828,8.828C361.931,402.114,357.976,406.069,353.103,406.069z"/>
	<path style="fill:#546B7F;" d="M273.655,406.069h-35.31c-4.873,0-8.828-3.955-8.828-8.828c0-4.873,3.955-8.828,8.828-8.828h35.31
		c4.873,0,8.828,3.955,8.828,8.828C282.483,402.114,278.528,406.069,273.655,406.069z"/>
</g>
<g>
	<path style="fill:#E7ECED;" d="M167.724,282.483c-29.202,0-52.966-23.755-52.966-52.966s23.764-52.966,52.966-52.966
		s52.966,23.755,52.966,52.966S196.926,282.483,167.724,282.483z M167.724,194.207c-19.474,0-35.31,15.837-35.31,35.31
		s15.837,35.31,35.31,35.31s35.31-15.837,35.31-35.31S187.198,194.207,167.724,194.207z"/>
	<path style="fill:#E7ECED;" d="M344.276,282.483c-29.21,0-52.966-23.755-52.966-52.966s23.755-52.966,52.966-52.966
		c29.21,0,52.966,23.755,52.966,52.966S373.486,282.483,344.276,282.483z M344.276,194.207c-19.474,0-35.31,15.837-35.31,35.31
		s15.837,35.31,35.31,35.31c19.474,0,35.31-15.837,35.31-35.31S363.75,194.207,344.276,194.207z"/>
</g>
<g>
</g>
<g>
</g>
<g>
</g>
<g>
</g>
<g>
</g>
<g>
</g>
<g>
</g>
<g>
</g>
<g>
</g>
<g>
</g>
<g>
</g>
<g>
</g>
<g>
</g>
<g>
</g>
<g>
</g>
</svg>
