<svg id="Capa_1" enable-background="new 0 0 512 512" height="512" viewBox="0 0 512 512" width="512" xmlns="http://www.w3.org/2000/svg"><g><g><path d="m491.396 55.115h-470.792c-11.384 0-20.604 9.22-20.604 20.603v360.563c0 11.384 9.22 20.604 20.604 20.604h62.08l185.938-28 159.929 28h62.845c11.384 0 20.604-9.22 20.604-20.604v-360.563c0-11.383-9.22-20.603-20.604-20.603zm-468.042 41.207c0-9.859 7.994-17.853 17.853-17.853s17.853 7.994 17.853 17.853-7.994 17.853-17.853 17.853-17.853-7.994-17.853-17.853zm119.326 159.678c-22.757 0-41.207-18.451-41.207-41.207 0-22.757 18.45-41.207 41.207-41.207s41.207 18.451 41.207 41.207-18.45 41.207-41.207 41.207zm226.64 0c-22.757 0-41.207-18.451-41.207-41.207 0-22.757 18.45-41.207 41.207-41.207s41.207 18.451 41.207 41.207-18.45 41.207-41.207 41.207zm101.473-141.825c-9.859 0-17.853-7.994-17.853-17.853s7.994-17.853 17.853-17.853 17.853 7.994 17.853 17.853-7.994 17.853-17.853 17.853z" fill="#555a66"/></g><g><path d="m61.811 456.885h-41.207c-11.384 0-20.604-9.22-20.604-20.603v-360.564c0-11.383 9.22-20.604 20.604-20.604h41.207c-11.384 0-20.604 9.22-20.604 20.604v2.751c-9.859 0-17.853 7.994-17.853 17.853s7.994 17.853 17.853 17.853v322.107c0 11.383 9.22 20.603 20.604 20.603z" fill="#414952"/></g><g><path d="m464.756 148.562-46.204-46.204c-3.863-3.863-9.107-6.037-14.567-6.037h-295.971c-5.46 0-10.704 2.174-14.567 6.037l-46.204 46.204c-3.863 3.863-6.037 9.107-6.037 14.567v149.531c0 11.383 9.22 20.604 20.604 20.604h388.378c11.384 0 20.604-9.22 20.604-20.604v-149.531c.001-5.46-2.173-10.703-6.036-14.567zm-363.283 66.231c0-22.757 18.45-41.207 41.207-41.207s41.207 18.451 41.207 41.207c0 22.757-18.45 41.207-41.207 41.207s-41.207-18.451-41.207-41.207zm267.847 41.207c-22.757 0-41.207-18.451-41.207-41.207 0-22.757 18.45-41.207 41.207-41.207s41.207 18.451 41.207 41.207-18.45 41.207-41.207 41.207z" fill="#ff8870"/></g><g><path d="m82.414 312.66v-149.528c0-5.464 2.171-10.705 6.035-14.569l46.207-46.206c3.864-3.864 9.105-6.035 14.569-6.035h-41.207c-5.464 0-10.705 2.171-14.569 6.035l-46.207 46.206c-3.864 3.864-6.035 9.105-6.035 14.569v149.528c0 11.379 9.225 20.604 20.604 20.604h41.207c-11.379 0-20.604-9.225-20.604-20.604z" fill="#ff6c52"/></g><g><path d="m391.915 363.139h-271.83c-9.668 0-18.036 6.722-20.119 16.163l-17.036 77.186h346.14l-17.036-77.187c-2.083-9.44-10.451-16.162-20.119-16.162z" fill="#f2f6fc"/></g><g fill="#333940"><path d="m193.551 413.12c-4.142 0-7.5-3.358-7.5-7.5v-12c0-4.142 3.358-7.5 7.5-7.5s7.5 3.358 7.5 7.5v12c0 4.142-3.358 7.5-7.5 7.5z"/><path d="m318.449 413.12c-4.142 0-7.5-3.358-7.5-7.5v-12c0-4.142 3.358-7.5 7.5-7.5s7.5 3.358 7.5 7.5v12c0 4.142-3.358 7.5-7.5 7.5z"/><path d="m256 420.264c-8.478 0-16.54-3.672-22.119-10.073-2.721-3.123-2.396-7.86.727-10.582 3.123-2.721 7.86-2.396 10.582.727 2.729 3.132 6.669 4.928 10.81 4.928s8.081-1.796 10.81-4.928c2.722-3.123 7.459-3.448 10.582-.727s3.448 7.459.727 10.582c-5.579 6.401-13.641 10.073-22.119 10.073z"/></g><g><path d="m161.292 363.139h-41.207c-9.668 0-18.036 6.722-20.119 16.163l-17.036 77.186h41.207l17.036-77.187c2.084-9.44 10.451-16.162 20.119-16.162z" fill="#e9edf5"/></g><g><path d="m369.32 256h-226.64c22.757 0 41.207-18.451 41.207-41.207 0-22.757-18.45-41.207-41.207-41.207h226.64c-22.757 0-41.207 18.451-41.207 41.207s18.45 41.207 41.207 41.207z" fill="#636978"/></g></g></svg>